<?xml version="1.0" standalone="no"?>
<!DOCTYPE svg PUBLIC "-//W3C//DTD SVG 1.1//EN" "http://www.w3.org/Graphics/SVG/1.1/DTD/svg11.dtd">
<svg xmlns="http://www.w3.org/2000/svg" version="1.1" viewBox="0 0 729.72 250" width="729.719970703125" height="250">
  <defs>
    <style>
      .cls-1 {
        fill-rule: evenodd;
      }

      .cls-1, .cls-2 {
        fill: #212f61;
      }

      .cls-3 {
        fill: #929497;
      }
    </style>
  </defs>
  <!-- Generator: Adobe Illustrator 28.7.1, SVG Export Plug-In . SVG Version: 1.2.0 Build 142)  -->
  <g>
    <g id="Layer_1">
      <g>
        <path class="cls-3" d="M381.58.04h-206.96c-9.85,0-17.84,7.99-17.84,17.84v85.64c0,3.46,1.01,6.68,2.71,9.43,15.91-28.85,93.91-147.68,237.89-9.8l1.8,3.08c.13-.9.23-1.79.23-2.71V17.88c0-9.85-7.99-17.84-17.84-17.84"/>
        <path class="cls-2" d="M0,17.84C0,7.99,7.99,0,17.84,0h85.64c9.86,0,17.84,7.99,17.84,17.84v85.64c0,9.86-7.99,17.84-17.84,17.84H17.84c-9.85,0-17.84-7.99-17.84-17.84V17.84"/>
        <path class="cls-2" d="M435.31,17.84c0-9.85,7.99-17.84,17.84-17.84h85.63c9.86,0,17.84,7.99,17.84,17.84v85.64c0,9.86-7.99,17.84-17.84,17.84h-85.63c-9.86,0-17.84-7.99-17.84-17.84V17.84"/>
        <path class="cls-2" d="M592.31,17.84c0-9.85,7.99-17.84,17.84-17.84h85.63c9.85,0,17.84,7.99,17.84,17.84v85.64c0,9.86-8,17.84-17.84,17.84h-85.63c-9.85,0-17.84-7.99-17.84-17.84V17.84"/>
        <path class="cls-2" d="M3.38,153.54h19.67c15.46,0,18.34,10.31,18.34,27.87,0,8.67,1.33,28.49-18.8,28.49H3.38v-56.37M15.18,201.24h5.69c7.18,0,8.59-5.38,8.59-19.52,0-10.38,0-19.51-8.19-19.51h-6.09v39.04Z"/>
        <path class="cls-2" d="M50.92,153.55h21.23c10.77,0,14.99,6.56,14.99,16.87,0,6.4-1.88,16.54-15.69,16.54h-8.74v22.95h-11.79v-56.36M62.7,178.29h6.56c3.51,0,5.93-3.82,5.93-7.57,0-4.6-1.25-8.5-6.56-8.5h-5.93v16.08Z"/>
        <polyline class="cls-2" points="94.3 209.91 94.3 153.55 106.09 153.55 106.09 200.54 123.74 200.54 123.74 209.91 94.3 209.91"/>
        <path class="cls-3" d="M203.52,121.36h44.48s33.83-.01,65.64,16.42c0,0-57.66-153.07-147.48-18.56,0,0,1.58,1.1,3.94,1.54,0,0,33.9-51.08,66.97-52.34,0,0-29.05,23.72-33.56,52.94"/>
        <path class="cls-1" d="M581.62,178.98c-.37,1.14-.68,2.43-.88,3.65,1.75-2.28,2.93-5.33,2.84-6.42-.85-.33-1.79,2.27-1.96,2.77M599.46,175.36l.44.74c1.39,2.17,3.01,4.24,4.62,6.26,1.53,1.82,4.87,5.17,5.1,7.79.22,2.51-1.75,4.49-4.77,4.75-4.58.4-10.01-2.1-12-5.37-.38.59-.78,1.04-1.2,1.5-3.42,3.64-5.84,4.76-8.13,4.96-11.11.98-8.06-23.34.22-24.06,1.25-.11,3.44.35,3.69,3.24.32,3.67-2.3,9.15-6.74,12.78.42,6.21,4.19,4.58,7.54,1.6l1.24-1.15c.46-.46.93-.93,1.49-1.27.44-.19.81-.24,1.12-.2.03-3.47,4.54-3.97,4.03-1.05l-.12.58c.12,3.67,9.39,5.81,9.59,4.38l-.44-.87c-1.08-1.79-2.43-3.49-3.79-5.06-1.59-1.92-6.44-7.1-6.69-9.91-.51-5.79,12.65-2.55,13.73,1.96.28,1.55-2.23,3.86-3.83,1.56l-.55-.84c-1.05-1.55-3.52-2.3-4.54-2.33Z"/>
        <path class="cls-1" d="M641.01,168.95l-.29-.96-.14-.57c-.18-2.14,4.15-3.88,4.66-1.26.62,6.81,3.39,17.84,5.39,19.96l.8.49.65.43c2.06,1.57-1.63,5.04-4.79,1.26-.76-.91-1.2-1.95-1.41-2.45-.5-1.11-1.57-3.84-2.52-7.48-1.42,2.63-6.85,12.53-10.26,12.82-.51.05-2.87-.1-3.08-2.44-.22-2.48,5.14-19.07,10.99-19.8M633.91,186.44c2.08-2.43,7.99-11.9,7.88-13.24-2.23-.12-7.18,9.54-7.88,13.24Z"/>
        <path class="cls-1" d="M400.3,212.18c-4.42.39-10.04-3.22-12.39-4.87-1.13,1.16-3.45,3.59-4,4.1-.94.92-1.95,1.87-3.05,2.61-.88.49-1.24.56-1.62.48-1.36-.52-2.22-1.25-1.91-2.39l.22-.73.67-2.05,1.2-3.5c1.71-5.04,2.69-6.6,7.94-3.32,2.87-3.35,4.02-4.67,6.31-7.89-.82.07-3.12.33-4.35.71,1.76.99,1.02,3.35-.81,3.51-3.39.3-5.75-4.86-.73-6.66,1.76-.63,4.45-1.01,8.14-1.34l.51-1.12c.92-1.11,1.78-1.17,2.58-1.25,1.35-.03,2.11.61,1.81,1.68-1.31,3.12-3.79,6.22-5.5,8.51-.7.91-3.56,4.32-4.9,5.98,2.74,1.73,4.14,2.4,5.2,2.85,2.26.89,4.28,1.2,4.52,1.18l1.05-.47c2.7-1.11,3.68,3.57-.89,3.97M383.64,204.71l-1.15,3.07c.64-.64,1.31-1.34,2.32-2.42-.37-.22-.68-.4-.96-.53l-.21-.12Z"/>
        <path class="cls-1" d="M300.27,215.63c2.08-2.43,8-11.9,7.88-13.24-2.23-.12-7.18,9.54-7.88,13.24M307.38,198.14l-.29-.96-.14-.58c-.19-2.14,4.14-3.87,4.66-1.25.61,6.81,3.39,17.83,5.39,19.96l.8.49.65.44c2.07,1.57-1.63,5.03-4.78,1.26-.76-.91-1.21-1.95-1.41-2.45-.5-1.1-1.58-3.84-2.53-7.48-1.42,2.64-6.85,12.53-10.26,12.83-.51.05-2.87-.1-3.08-2.44-.22-2.48,5.14-19.08,10.99-19.81Z"/>
        <path class="cls-1" d="M723.72,180.63c-.14-1.62,1.11-3.12,2.74-3.26,1.61-.14,3.11,1.11,3.25,2.73.15,1.71-1.13,3.12-2.73,3.25-1.6.14-3.11-1.01-3.26-2.73M708.92,171.84c-1.43,3.4-3.4,8.32-4.48,11.38l-.47,1.22c-.67,1.68-1.36,1.85-2.98,1.18-.66-.28-1.43-.74-1.5-1.54-.05-.58-.09-4.81-.09-8.95,0-3.92.02-8.24.19-8.68l.7-.81c.25-.19.55-.39.85-.58l.8-.46c1.85-1,2.22.89,2.11,2.23l-.27,2.88c-.21,2.53-.35,4.53-.44,6.15,1.15-2.84,2-4.74,3.46-7.91.83-1.94,2.46-7.06,5.45-6.14.96.3,1.15,1.08,1.02,1.97l-.14.79-.23,1.11c-.38,3.77.3,10.76,2.39,13.86.88,1.3,1.69,1.39,2.81.43,1.09-1.01,2.86-1.33,3.03.57.21,2.45-7.12,6.75-10.52-1.42-.93-2.24-1.42-4.95-1.7-7.29ZM662.35,173.11c2.22-1.66,3.35-2.48,4.45-3.22l-.64-7.44c-.24-2.77-1.38-4.6,2-5.98,1.37-.44,2.27.03,2.49,1.05l-.11,4.88c-.03,1.03.04,3.25.12,5.08,1.75-.97,4.25-2.29,6.18-2.46,2.64-.02,1.59,2.37.61,3.34-.27.27-.54.5-.78.67-.56.36-.75.4-.84.4l-.61-.04c-.72,0-2.8,1.06-4.36,2.08.12,2.06.41,5.06,1.16,9.56l.31,1.43c.92,3.71,2.88,2.27,3.94-.41l.42-.87c.87-1.72,2.96-1.65,3.14.33.35,4.03-6.93,10.02-10.15,4.59-.74-1.26-1.09-2.86-1.35-4.09-.55-2.54-.91-5.37-1.21-8.01l-1.2.91-1.36,1.03c-.88.65-1.06.63-1.06.63-1.47.13-2.55-2.09-1.49-3.17l.35-.3ZM662.63,186.39c.97,1.43-1,2.53-2.17,2.64-3.52.31-4.95-3.23-6.03-7.89-.75-3.42-2.99-18.07-2.34-22.82.12-.58.17-.74.27-.89.76-1.29,4.99-3.19,4.67.6l-.11,1.05-.19,1.63c-.33,3.85.53,22.23,3.41,24.75.44.37.76.4,1.5.4.37.04.77.2,1,.54ZM610.96,177.6c2.22-1.66,3.35-2.48,4.45-3.21l-.65-7.43c-.24-2.77-1.38-4.6,2.01-5.99,1.36-.44,2.27.03,2.49,1.05l-.1,4.88c-.03,1.03.04,3.25.12,5.09,1.75-.97,4.25-2.3,6.18-2.47,2.65-.01,1.59,2.37.61,3.34-.27.27-.54.5-.78.67-.56.36-.75.4-.84.41l-.62-.05c-.72,0-2.8,1.06-4.35,2.08.12,2.06.41,5.06,1.15,9.56l.31,1.43c.92,3.7,2.88,2.26,3.95-.41l.41-.86c.87-1.72,2.97-1.66,3.14.33.36,4.03-6.93,10.02-10.15,4.58-.75-1.26-1.09-2.86-1.35-4.09-.55-2.53-.91-5.36-1.22-8.01l-1.2.91-1.36,1.03c-.89.65-1.07.63-1.07.63-1.47.13-2.55-2.09-1.49-3.17l.35-.31ZM687.26,169.73c-.37,1.14-.68,2.43-.89,3.65,1.75-2.28,2.93-5.33,2.84-6.42-.85-.33-1.79,2.27-1.95,2.77ZM693.06,165.92c.32,3.67-2.29,9.15-6.74,12.78.42,6.21,4.19,4.58,7.54,1.6l1.24-1.15c.46-.46.93-.93,1.49-1.27,2.1-.89,2.68,1.26,1.79,2.58-.28.42-.68.87-1.1,1.33-3.41,3.64-5.84,4.76-8.13,4.97-11.11.97-8.05-23.34.22-24.06,1.25-.11,3.43.36,3.69,3.24ZM531.17,197.48c-.14-1.62,1.11-3.11,2.73-3.25,1.62-.14,3.12,1.11,3.26,2.73.15,1.72-1.13,3.12-2.73,3.26-1.59.14-3.1-1.02-3.25-2.73ZM564.36,179.09c-2.07.72-7.39,12.22-7.14,15,.4-.39,8.38-9.48,8.05-13.19-.29-.79-.56-1.41-.91-1.82ZM562.33,175.72l-.2-.67c-.12-1.37,1.84-2.48,2.94-2.58,1.54.09,2,1.11,2.41,1.98l.82,1.8c4.21,9.53,5.47,18.45,5.7,21.13.97,11.08-3.18,17.27-9.15,17.79-5.52.48-15.08-6.89-11.28-9.3.4-.26.91-.31,1.36-.14l.62.41.63.64.93,1.04c3.14,3.46,5.37,4.01,7.35,3.84,9.42-.82,4.44-20.42,3.01-25.05-2.7,4.97-9.01,11.58-11.7,11.82-6.3.55.33-13.61,1.02-15.02,1.01-2.08,3.09-5.97,5.1-7.41l.43-.27ZM508.32,186.58c2.22-1.66,3.35-2.48,4.46-3.21l-.65-7.44c-.25-2.76-1.38-4.6,2.01-5.98,1.36-.44,2.26.03,2.48,1.05l-.1,4.88c-.03,1.03.04,3.25.12,5.08,1.75-.97,4.25-2.29,6.18-2.46,2.65-.01,1.59,2.37.61,3.34-.27.27-.54.5-.78.67-.56.36-.75.4-.84.41l-.61-.04c-.72,0-2.8,1.06-4.36,2.08.12,2.06.41,5.06,1.16,9.56l.31,1.43c.92,3.71,2.88,2.26,3.94-.41l.41-.87c.86-1.72,2.96-1.66,3.14.34.35,4.03-6.93,10.02-10.15,4.58-.75-1.26-1.09-2.86-1.35-4.09-.55-2.53-.91-5.36-1.21-8.01l-1.2.9-1.37,1.04c-.88.65-1.06.62-1.06.62-1.47.13-2.55-2.09-1.49-3.16l.34-.31ZM501.18,169.81s-2.22,1.75-1.57,11.37c2.4-1.2,5.45-2.3,7.7-2.49h.78c.58.07,1.11.42,1.17,1.06l-.07.78c-.17.58-.25.77-.41.94-.57.68-2.04,1.73-2.99,1.49l-.68-.22c-.61.05-2.97.88-5.16,2.21.69,6.07,1.82,14.49,3.11,19.77,1.82,7.29,3.79,7.63,4.1,7.6l.6-.24c3.2-1.27,3.69,3.03-.48,3.39-5.45.48-7.7-7.32-8.74-11.42-1.26-5.34-2.24-13.24-2.62-16.72l-1.17.8-1.39.92c-.85.51-1.13.59-1.52.51-2.06-.83-2.13-2.28-.67-3.35.67-.49,1.95-1.33,4.38-2.91-.37-4.32-.67-9.19.78-13.26.92-2.51,3.17-5.91,6.38-4.72,2.68.99.81,5.22-1.13,4.65l-.39-.17ZM480.69,191.81c-1.43,3.4-3.4,8.32-4.48,11.38l-.47,1.21c-.67,1.68-1.36,1.86-2.98,1.18-.66-.28-1.43-.74-1.5-1.54-.05-.58-.09-4.8-.09-8.95,0-3.92.02-8.23.19-8.67l.7-.81c.25-.18.55-.39.85-.58l.8-.46c1.85-1,2.22.89,2.1,2.23l-.27,2.88c-.2,2.53-.35,4.54-.44,6.15,1.15-2.84,2-4.74,3.46-7.9.83-1.95,2.46-7.06,5.45-6.14.97.3,1.14,1.08,1.02,1.97l-.13.79-.23,1.11c-.38,3.77.3,10.76,2.4,13.86.88,1.3,1.69,1.39,2.81.43,1.07-1,2.86-1.34,3.02.57.21,2.45-7.12,6.75-10.51-1.42-.93-2.24-1.43-4.95-1.7-7.29ZM466.26,201.37c3.32-.43,2.13,3.77-.4,3.99-3.18.28-3.99-4.68-4.46-6.85-1.67,2.56-3.4,4.92-5.53,7.13-.86.87-1.81,1.84-3.1,1.95-2.6.22-3.17-1.76-3.34-3.73-.06-.69-.56-12.65-.61-14.04-.13-3.27,4.85-4.62,5.08-2.03l-.04.65-.11.7-.2,1.04c-.27,2.17-.45,7.91,0,12.62,1.01-1.03,1.87-2.2,2.8-3.3.96-1.32,3.95-5.46,3.81-7.06-.36-4.08-.7-4.52-.82-5.83-.19-2.23,4.55-4.59,4.82-1.43.03.31-.08,1.76-.05,2.06,0,2.79.89,12.34,2.42,14.19l-.26-.06ZM431.96,177.03c-.2,1.87-.45,3.76-.57,5.64-.43,5.05-.45,10.13-.17,15.14,2.42-3.45,3.78-6.41,4.87-8.99.8-2.29,5.62-2.51,4.72.05l-.78,1.57c-1.42,2.56-3.02,5.04-4.61,7.5,1.76,1.08,6.33,3.83,10.77,5.94l1.25.61c1.24.73,1.23,1.28.85,1.94l-.45.67c-.17.22-.36.45-.55.64-.71.53-1.07.54-1.5.4l-1.99-.91c-3.61-1.85-7.12-3.91-10.63-5.95-.49.64-.97,1.29-1.33,1.83-.03,1.1.43,2.14.75,2.55l.99.79c1.83,1.73-2.69,5.41-4.59.92l-.25-.64c-2.02-6.59-1.74-22.5-1.79-28.24l.04-.89c.1-1.09.61-1.57,1.55-2.04l.92-.43c.98-.42,2.46-.74,2.6.83,0,0-.04.62-.09,1.08ZM422.03,205.23c3.32-.43,2.13,3.77-.4,3.99-3.18.28-3.99-4.68-4.45-6.86-1.67,2.56-3.4,4.92-5.53,7.13-.86.88-1.81,1.84-3.1,1.95-2.6.23-3.17-1.76-3.34-3.73-.06-.69-.56-12.64-.6-14.04-.13-3.26,4.85-4.62,5.08-2.03l-.04.65-.12.7-.2,1.04c-.27,2.17-.45,7.91,0,12.62,1.01-1.03,1.87-2.2,2.8-3.3.96-1.32,3.95-5.46,3.81-7.06-.36-4.08-.71-4.52-.82-5.83-.19-2.23,4.54-4.59,4.82-1.43.03.31-.08,1.75-.05,2.06,0,2.79.88,12.34,2.42,14.19l-.27-.06ZM355.8,212.82c-.14-1.62,1.11-3.12,2.73-3.26,1.62-.14,3.12,1.11,3.26,2.73.15,1.72-1.13,3.12-2.73,3.26-1.6.14-3.11-1.02-3.26-2.73ZM336.2,208.75c1.68-3.3,3.19-6.83,4.44-10.31.59-1.99,1.42-4.5,4.07-4.16.7.09,1.04.58,1.1,1.24.03.31.01,4.58.09,5.43.12,1.36,1.01,11.65,3.57,11.43l1-.39c2.67-.96,3.02,3.66-1.45,4.05-3.62.31-5-3.03-5.76-5.86-.54-1.92-.89-3.85-1.12-5.84-1.27,3.19-2.72,6.39-3.05,7.04-.79,1.66-1.74,3.35-3.75,3.53-2.99.26-2.96-2.88-3.14-4.92-.17-1.91-.23-3.54-.24-4.94-1.52,3.03-3.06,6.62-4.42,9.86-.76,1.77-1.15,2.69-1.41,3.18-1.12,1.72-4.04.63-4.17-.9l.22-3.81c.22-3.09.52-9.67.45-12.29-.09.32-.28.73-.52,1.3l-.34.86c-.21.49-.5.95-1,1.18l-.7.16c-4.52.4.3-8,3.47-8.28,2.22-.2,2.93,1.73,3.05,3.06.18,2.08.09,5.49-.12,9.13,1.27-2.96,2.46-5.39,3.35-7.01,1-1.77,2.25-4.68,4.62-4.89,2.74-.02,1.91,2.19,1.85,3.69-.16,1.42-.39,4.01-.07,8.45ZM284.39,202.92l.44.74c1.4,2.18,3.01,4.25,4.63,6.26,1.53,1.82,4.87,5.17,5.1,7.8.22,2.51-1.75,4.49-4.77,4.75-5.57.49-12.39-3.32-12.76-7.57-.33-3.85,4.55-4.51,4.02-1.47l-.12.58c.12,3.67,9.38,5.81,9.59,4.39l-.44-.87c-1.07-1.79-2.43-3.48-3.79-5.06-1.59-1.92-6.44-7.1-6.69-9.91-.51-5.79,12.65-2.55,13.73,1.96.28,1.55-2.23,3.86-3.83,1.56l-.55-.84c-1.05-1.55-3.51-2.3-4.54-2.33ZM266.8,210.52c-1.43,3.4-3.4,8.32-4.49,11.38l-.46,1.21c-.67,1.68-1.36,1.85-2.98,1.18-.66-.28-1.43-.74-1.5-1.54-.05-.58-.09-4.81-.09-8.94,0-3.92.02-8.24.19-8.68l.7-.81c.24-.19.55-.39.85-.58l.8-.46c1.85-1,2.22.88,2.1,2.23l-.26,2.88c-.21,2.53-.35,4.54-.44,6.15,1.15-2.84,2-4.74,3.46-7.9.84-1.94,2.46-7.06,5.45-6.14.96.3,1.14,1.07,1.02,1.97l-.14.79-.23,1.11c-.38,3.77.3,10.76,2.4,13.86.88,1.3,1.69,1.38,2.81.43,1.07-1,2.86-1.34,3.02.57.21,2.45-7.12,6.75-10.51-1.42-.93-2.24-1.43-4.95-1.7-7.29ZM249.06,194.83c-.09.97-.01,2.23.22,3.19l.22.82c.09,1.07-.94,1.62-1.86,1.7-1.32-.04-1.81-.53-2.09-1.25-.34-.86-.55-2.4-.78-5.02-.25-2.86,4.4-3.53,4.58-1.49.04.4-.03.84-.1,1.18l-.2.86ZM249.82,207.14c-.38,3.13-.12,10.93,1.49,13.87.33.6.58.68.65.68l.77.08c4.3.57-2.68,7.76-5.3.63-.15-.41-.26-.8-.35-1.07-.62-2.11-2.42-12.77-1.57-15.77.82-1.87,4.52-3.35,4.74-.83l-.06.68-.14.71-.23,1.01ZM239.54,205.6c.32,3.67-2.3,9.15-6.74,12.78.41,6.21,4.19,4.58,7.53,1.6l1.24-1.15c.46-.46.93-.93,1.49-1.27,2.1-.89,2.68,1.25,1.8,2.58-.28.42-.68.87-1.1,1.33-3.41,3.64-5.84,4.77-8.13,4.97-11.11.97-8.06-23.34.22-24.07,1.25-.11,3.43.36,3.69,3.24ZM233.74,209.41c-.38,1.14-.68,2.43-.89,3.65,1.75-2.28,2.93-5.33,2.84-6.42-.85-.33-1.79,2.27-1.95,2.77ZM212.07,219.61c1.68-3.3,3.19-6.83,4.44-10.31.59-1.99,1.42-4.5,4.07-4.16.7.09,1.04.57,1.1,1.24.03.31.01,4.58.09,5.43.12,1.35,1.01,11.65,3.57,11.42l1-.39c2.67-.96,3.02,3.66-1.45,4.05-3.62.32-5-3.02-5.77-5.85-.54-1.92-.89-3.86-1.12-5.84-1.27,3.19-2.71,6.39-3.05,7.04-.79,1.66-1.74,3.35-3.75,3.52-3,.26-2.96-2.87-3.14-4.91-.16-1.91-.23-3.54-.24-4.94-1.52,3.03-3.06,6.62-4.42,9.86-.76,1.77-1.15,2.69-1.4,3.18-1.12,1.71-4.04.64-4.18-.9l.22-3.81c.22-3.09.51-9.66.44-12.28-.09.32-.28.73-.52,1.3l-.34.86c-.21.49-.5.95-1,1.18l-.7.16c-4.52.4.3-8,3.47-8.28,2.22-.19,2.93,1.74,3.05,3.06.18,2.08.1,5.5-.12,9.13,1.27-2.97,2.46-5.4,3.35-7.02,1-1.77,2.25-4.68,4.62-4.89,2.74-.02,1.91,2.19,1.85,3.69-.16,1.42-.39,4.02-.08,8.45ZM183.81,213.78c-.38,1.14-.68,2.43-.89,3.65,1.75-2.28,2.93-5.33,2.84-6.43-.85-.32-1.79,2.27-1.95,2.77ZM189.61,209.97c.32,3.67-2.3,9.16-6.74,12.78.41,6.21,4.19,4.58,7.53,1.6l1.25-1.15c.46-.46.93-.93,1.49-1.27,2.1-.9,2.68,1.25,1.8,2.57-.28.42-.68.87-1.1,1.33-3.41,3.64-5.84,4.77-8.13,4.97-11.11.97-8.06-23.34.22-24.07,1.25-.11,3.43.36,3.69,3.24ZM164.51,210.52l-.2-.67c-.12-1.37,1.84-2.48,2.95-2.58,1.54.09,2,1.11,2.4,1.98l.82,1.8c4.21,9.53,5.47,18.44,5.7,21.13.97,11.08-3.18,17.27-9.15,17.79-5.52.49-15.08-6.89-11.28-9.3.4-.26.92-.32,1.37-.14l.62.41.63.64.94,1.04c3.14,3.46,5.36,4.01,7.35,3.83,9.42-.82,4.44-20.42,3.01-25.05-2.7,4.97-9.01,11.58-11.7,11.81-6.3.55.33-13.61,1.02-15.02,1.01-2.08,3.09-5.97,5.1-7.41l.43-.27ZM166.55,213.89c-2.08.73-7.39,12.22-7.14,15.01.39-.39,8.38-9.48,8.05-13.19-.29-.79-.56-1.41-.91-1.82Z"/>
      </g>
    </g>
  </g>
</svg>