<svg width="421" height="127" viewBox="0 0 421 127" fill="none" xmlns="http://www.w3.org/2000/svg">
<path d="M362.114 113.75H360.405V99.2016H362.114V113.75Z" fill="#999999"/>
<path d="M92.5793 42.3558C86.2931 22.7195 70.2547 7.04983 51.4328 2.01939C41.968 -0.821368 32.0422 0.142618 22.3598 0.215686C42.8701 1.55078 61.0339 19.6544 63.5879 41.4778C66.2106 59.2975 58.5387 78.2531 44.5107 88.2884C35.2661 95.3942 23.4686 97.8904 12.2715 96.5297C11.8904 86.8554 12.2021 77.1786 12.0751 67.5031C21.585 70.9756 33.2446 65.7107 36.3866 55.2315C40.2112 45.0491 34.4228 32.6176 24.6812 29.4292C13.7624 25.0671 0.658238 34.2356 0.115727 46.7046V46.7094L6.10352e-05 46.7046V126.41C13.2545 126.311 26.5077 126.498 39.7608 126.3C61.6352 125.41 82.1573 110.161 90.892 88.7457C96.8903 74.2621 97.653 57.2845 92.5793 42.3558Z" fill="#1B2340"/>
<path d="M128.418 18.0054V51.9579H131.876C136.94 51.9579 140.918 50.4621 143.81 47.4713C147.003 44.0563 148.6 39.8828 148.6 34.9511C148.6 30.0608 147.003 25.8871 143.81 22.4315C140.918 19.4811 136.94 18.0054 131.876 18.0054H128.418ZM131.904 13.1551C138.707 13.1958 143.998 15.2473 147.778 19.3088C151.822 23.6748 153.844 28.8885 153.844 34.9511C153.844 41.0754 151.784 46.3498 147.664 50.7755C143.961 54.7373 138.707 56.7375 131.904 56.7776H123.287V13.1551H131.904Z" fill="#1B2340"/>
<path d="M178.562 17.3387C174.215 17.3387 170.456 19.0419 167.28 22.4473C164.105 25.8526 162.518 30.0002 162.518 34.8907C162.518 39.8225 164.105 43.9856 167.28 47.3805C170.456 50.7757 174.215 52.4735 178.562 52.4735C182.927 52.4735 186.697 50.7757 189.872 47.3805C193.047 43.9856 194.634 39.8225 194.634 34.8907C194.634 30.0002 193.047 25.8526 189.872 22.4473C186.697 19.0419 182.927 17.3387 178.562 17.3387ZM193.628 19.1578C197.738 23.5642 199.793 28.8081 199.793 34.8907C199.793 41.0138 197.738 46.2744 193.628 50.6698C189.518 55.0653 184.496 57.2633 178.562 57.2633C172.647 57.2633 167.634 55.0653 163.524 50.6698C159.415 46.2744 157.359 41.0138 157.359 34.8907C157.359 28.8081 159.415 23.5642 163.524 19.1578C167.634 14.7525 172.647 12.5489 178.562 12.5489C184.496 12.5489 189.518 14.7525 193.628 19.1578Z" fill="#1B2340"/>
<path d="M241.321 13.1553V56.7777H236.19V21.3097L222.782 40.135L209.346 21.3097V56.7777H204.215V13.1553H209.686L222.782 31.4954L235.85 13.1553H241.321Z" fill="#1B2340"/>
<path d="M283.727 13.1553V56.7777H278.596V21.3097L265.188 40.135L251.751 21.3097V56.7777H246.621V13.1553H252.092L265.188 31.4954L278.256 13.1553H283.727Z" fill="#1B2340"/>
<path d="M307.423 33.9208L303.513 22.3409L299.572 33.9208H307.423ZM305.751 13.1553L320.519 56.7776H315.191L309.04 38.6492H297.956L291.692 56.7776H286.334L301.3 13.1553H305.751Z" fill="#1B2340"/>
<path d="M336.705 33.8296C333.776 32.7993 331.424 31.3345 329.647 29.4349C327.87 27.5347 326.983 25.2412 326.983 22.553C326.983 19.9264 327.904 17.6166 329.746 15.6259C331.59 13.6358 333.88 12.6398 336.62 12.6398C339.323 12.6398 341.637 13.6606 343.565 15.7015C344.567 16.7529 345.35 18.2278 345.918 20.128L341.325 22.0375C340.759 20.4002 340.248 19.3391 339.795 18.8544C338.868 17.8442 337.811 17.3385 336.62 17.3385C335.448 17.3385 334.405 17.8291 333.488 18.8096C332.571 19.789 332.114 21.0374 332.114 22.553C332.114 24.0483 332.586 25.3214 333.531 26.3724C334.512 27.3834 335.855 28.3127 337.556 29.1615C340.805 30.2931 343.526 32.0309 345.72 34.3756C348.232 37.0434 349.489 40.1961 349.489 43.8343C349.489 47.4715 348.246 50.6198 345.762 53.2765C343.277 55.9345 340.229 57.2633 336.62 57.2633C332.991 57.2633 329.921 55.8992 327.408 53.1702C325.442 51.089 324.233 48.3918 323.779 45.0769L328.712 43.1667C329.014 46.3391 329.855 48.6535 331.234 50.1085C332.747 51.7257 334.541 52.5335 336.62 52.5335C338.717 52.5335 340.546 51.7005 342.106 50.0332C343.664 48.3658 344.444 46.2996 344.444 43.8343C344.444 41.3678 343.678 39.3167 342.148 37.6798C340.598 36.0425 338.784 34.7596 336.705 33.8296Z" fill="#1B2340"/>
<path d="M385.913 47.168L389.486 50.5633C384.893 55.0297 379.838 57.263 374.321 57.263C368.387 57.263 363.375 55.0749 359.283 50.7001C355.191 46.3241 353.146 41.0751 353.146 34.951C353.146 28.8882 355.191 23.6545 359.283 19.2483C363.375 14.8427 368.387 12.6397 374.321 12.6397C379.838 12.6397 384.893 14.883 389.486 19.3688L385.913 22.7646C382.172 19.2285 378.308 17.4597 374.321 17.4597C369.974 17.4597 366.218 19.1528 363.053 22.5376C359.887 25.9224 358.305 30.0607 358.305 34.951C358.305 39.8827 359.887 44.0354 363.053 47.4108C366.218 50.7859 369.974 52.4732 374.321 52.4732C378.308 52.4732 382.172 50.7047 385.913 47.168Z" fill="#1B2340"/>
<path d="M399.067 37.3459V56.7777H393.936V13.1553H399.067V32.5867H415.819V13.1553H420.95V56.7777H415.819V37.3459H399.067Z" fill="#1B2340"/>
<path d="M126.132 69.6217V80.607H128.937C130.26 80.607 131.415 80.082 132.403 79.0311C133.389 77.9817 133.884 76.67 133.884 75.0975C133.884 73.537 133.389 72.2331 132.403 71.1885C131.415 70.1437 130.26 69.6217 128.937 69.6217H126.132ZM126.132 83.2685V91.2042H123.282V66.9598H129.772C131.662 67.2293 133.243 68.0495 134.514 69.4199C135.995 71.003 136.735 72.8963 136.735 75.0975C136.735 77.3104 135.984 79.2253 134.482 80.8429C132.98 82.4604 131.132 83.2685 128.937 83.2685H126.132Z" fill="#999999"/>
<path d="M157.425 66.9598V69.6046H147.941V77.7599H157.425V80.4047H147.941V88.559H157.425V91.2044H145.089V66.9598H157.425Z" fill="#999999"/>
<path d="M169.354 69.6217V80.607H172.158C173.481 80.607 174.638 80.082 175.625 79.0311C176.611 77.9817 177.105 76.67 177.105 75.0975C177.105 73.537 176.611 72.2331 175.625 71.1885C174.638 70.1437 173.481 69.6217 172.158 69.6217H169.354ZM172.017 83.2685H169.354V91.2042H166.503V66.9598H172.993C174.884 67.2293 176.464 68.0495 177.735 69.4199C179.216 71.003 179.957 72.8963 179.957 75.0975C179.957 77.3104 179.195 79.231 177.672 80.8596C176.665 81.9489 175.771 82.5946 174.994 82.7973L180.083 91.2042H176.79L172.017 83.2685Z" fill="#999999"/>
<path d="M194.738 78.4499C193.11 77.8774 191.802 77.0636 190.816 76.0074C189.828 74.9519 189.335 73.6764 189.335 72.183C189.335 70.7232 189.847 69.4396 190.871 68.3336C191.895 67.2265 193.169 66.6733 194.691 66.6733C196.194 66.6733 197.48 67.2411 198.551 68.3755C199.107 68.9595 199.544 69.7789 199.859 70.8348L197.306 71.8971C196.991 70.9865 196.708 70.3966 196.455 70.1276C195.941 69.5653 195.353 69.2853 194.691 69.2853C194.04 69.2853 193.459 69.5575 192.951 70.102C192.441 70.6472 192.186 71.3406 192.186 72.183C192.186 73.014 192.449 73.7218 192.974 74.3062C193.52 74.8677 194.266 75.384 195.211 75.8559C197.018 76.4852 198.529 77.4509 199.749 78.7535C201.145 80.2365 201.844 81.989 201.844 84.0107C201.844 86.032 201.153 87.7817 199.772 89.2585C198.39 90.7356 196.697 91.4744 194.691 91.4744C192.675 91.4744 190.968 90.7157 189.571 89.1996C188.478 88.0428 187.806 86.5435 187.555 84.7009L190.296 83.6396C190.464 85.4035 190.931 86.6892 191.698 87.4977C192.538 88.3964 193.536 88.8457 194.691 88.8457C195.857 88.8457 196.873 88.3823 197.739 87.4554C198.606 86.5294 199.039 85.3807 199.039 84.0107C199.039 82.6398 198.614 81.4999 197.763 80.5897C196.901 79.6803 195.893 78.9671 194.738 78.4499Z" fill="#999999"/>
<path d="M221.02 69.2853C218.605 69.2853 216.515 70.2316 214.75 72.1237C212.986 74.0165 212.104 76.322 212.104 79.0406C212.104 81.7809 212.986 84.0949 214.75 85.9819C216.515 87.8686 218.605 88.8126 221.02 88.8126C223.447 88.8126 225.543 87.8686 227.306 85.9819C229.071 84.0949 229.954 81.7809 229.954 79.0406C229.954 76.322 229.071 74.0165 227.306 72.1237C225.543 70.2316 223.447 69.2853 221.02 69.2853ZM229.394 70.2959C231.679 72.7449 232.821 75.6598 232.821 79.0406C232.821 82.4433 231.679 85.3664 229.394 87.8101C227.109 90.2529 224.318 91.4744 221.02 91.4744C217.733 91.4744 214.948 90.2529 212.663 87.8101C210.378 85.3664 209.237 82.4433 209.237 79.0406C209.237 75.6598 210.378 72.7449 212.663 70.2959C214.948 67.8469 217.733 66.623 221.02 66.623C224.318 66.623 227.109 67.8469 229.394 70.2959Z" fill="#999999"/>
<path d="M243.884 66.9598L256.802 86.3354V66.9598H259.654V91.2044H256.503L243.915 72.3177V91.2044H241.064V66.9598H243.884Z" fill="#999999"/>
<path d="M278.626 78.5009L276.452 72.0649L274.262 78.5009H278.626ZM277.696 66.9598L285.904 91.2044H282.942L279.523 81.1286H273.364L269.882 91.2044H266.905L275.223 66.9598H277.696Z" fill="#999999"/>
<path d="M293.266 91.2044V66.9598H296.117V88.5593H304.262V91.2044H293.266Z" fill="#999999"/>
<path d="M345.216 87.9028C342.895 90.2835 340.195 91.4745 337.118 91.4745C333.82 91.4745 331.034 90.2583 328.761 87.8272C326.486 85.3948 325.35 82.4774 325.35 79.0736C325.35 75.7047 326.486 72.7954 328.761 70.3468C331.034 67.8982 333.82 66.6735 337.118 66.6735C340.185 66.6735 342.994 67.9198 345.546 70.4139L343.561 72.3014C341.481 70.3355 339.334 69.3524 337.118 69.3524C334.702 69.3524 332.615 70.2932 330.855 72.1749C329.096 74.0559 328.217 76.3555 328.217 79.0736C328.217 81.8143 329.096 84.1225 330.855 85.9983C332.615 87.8744 334.702 88.8126 337.118 88.8126C339.187 88.8126 340.941 88.1949 342.381 86.9589V79.5797H345.216V87.9028Z" fill="#999999"/>
<path d="M374.381 66.9598V91.2044H371.529V71.4917L364.077 81.9548L356.609 71.4917V91.2044H353.758V66.9598H356.799L364.077 77.1525L371.34 66.9598H374.381Z" fill="#999999"/>
<path d="M390.138 88.559C391.452 88.559 392.599 88.0338 393.581 86.9841C394.563 85.9339 395.055 84.6282 395.055 83.0665C395.055 81.5057 394.563 80.1972 393.581 79.1407C392.599 78.0851 391.452 77.557 390.138 77.557H386.011V88.559H390.138ZM386.011 69.5883V74.9122H390.58C391.2 74.8451 391.677 74.6263 392.014 74.2548C392.476 73.7723 392.707 73.1258 392.707 72.3177C392.707 71.5316 392.466 70.8797 391.982 70.3627C391.499 69.8466 390.953 69.5883 390.345 69.5883H386.011ZM395.732 77.3723C397.202 78.9445 397.937 80.8429 397.937 83.0665C397.937 85.2681 397.176 87.1838 395.653 88.8122C394.425 90.1381 392.869 90.9348 390.989 91.2042H383.16V66.9598H390.359C391.841 66.9598 393.08 67.4937 394.077 68.5602C395.075 69.6274 395.575 70.8797 395.575 72.3177C395.575 73.7665 395.086 75.0079 394.11 76.041C394.456 76.1313 394.997 76.5743 395.732 77.3723Z" fill="#999999"/>
<path d="M408.639 80.4047V91.2044H405.786V66.9598H408.639V77.7599H417.949V66.9598H420.8V91.2044H417.949V80.4047H408.639Z" fill="#999999"/>
<path d="M132.349 99.2014H134.136L129.249 113.75H128.058L123.18 99.2014H124.957L128.663 110.404L132.349 99.2014Z" fill="#999999"/>
<path d="M143.749 99.2014V100.789H138.058V105.683H143.749V107.269H138.058V112.163H143.749V113.75H136.347V99.2014H143.749Z" fill="#999999"/>
<path d="M148.739 100.799V107.391H150.422C151.216 107.391 151.909 107.076 152.502 106.445C153.095 105.816 153.391 105.028 153.391 104.085C153.391 103.148 153.095 102.366 152.502 101.739C151.909 101.112 151.216 100.799 150.422 100.799H148.739ZM150.337 108.988H148.739V113.75H147.028V99.2012H150.924C152.058 99.3633 153.005 99.8559 153.769 100.678C154.658 101.628 155.102 102.764 155.102 104.085C155.102 105.412 154.645 106.565 153.731 107.543C153.126 108.196 152.59 108.583 152.123 108.705L155.177 113.75H153.202L150.337 108.988Z" fill="#999999"/>
<path d="M163.997 106.127L162.692 102.265L161.378 106.127H163.997ZM163.438 99.2012L168.364 113.75H166.587L164.535 107.704H160.839L158.75 113.75H156.963L161.954 99.2012H163.438Z" fill="#999999"/>
<path d="M172.277 99.2014L180.029 110.829V99.2014H181.739V113.75H179.849L172.295 102.417V113.75H170.585V99.2014H172.277Z" fill="#999999"/>
<path d="M189.188 100.789V113.75H187.487V100.789H184.234V99.2014H192.431V100.789H189.188Z" fill="#999999"/>
<path d="M202.337 102.841L205.087 110.434L207.905 99.2014H209.635L205.985 113.75H204.493L201.769 106.087L199.037 113.75H197.544L193.895 99.2014H195.634L198.46 110.434L201.193 102.841H202.337Z" fill="#999999"/>
<path d="M218.455 100.597C217.005 100.597 215.75 101.165 214.692 102.3C213.633 103.437 213.103 104.82 213.103 106.451C213.103 108.095 213.633 109.484 214.692 110.616C215.75 111.748 217.005 112.314 218.455 112.314C219.909 112.314 221.167 111.748 222.226 110.616C223.285 109.484 223.814 108.095 223.814 106.451C223.814 104.82 223.285 103.437 222.226 102.3C221.167 101.165 219.909 100.597 218.455 100.597ZM223.479 101.204C224.85 102.673 225.535 104.422 225.535 106.451C225.535 108.492 224.85 110.247 223.479 111.713C222.108 113.179 220.433 113.912 218.455 113.912C216.482 113.912 214.81 113.179 213.439 111.713C212.068 110.247 211.383 108.492 211.383 106.451C211.383 104.422 212.068 102.673 213.439 101.204C214.81 99.7338 216.482 98.9993 218.455 98.9993C220.433 98.9993 222.108 99.7338 223.479 101.204Z" fill="#999999"/>
<path d="M230.053 100.799V107.391H231.736C232.53 107.391 233.223 107.076 233.816 106.445C234.407 105.816 234.705 105.028 234.705 104.085C234.705 103.148 234.407 102.366 233.816 101.739C233.223 101.112 232.53 100.799 231.736 100.799H230.053ZM231.65 108.988H230.053V113.75H228.341V99.2012H232.236C233.371 99.3633 234.319 99.8559 235.082 100.678C235.971 101.628 236.415 102.764 236.415 104.085C236.415 105.412 235.958 106.565 235.045 107.543C234.439 108.196 233.903 108.583 233.437 108.705L236.491 113.75H234.515L231.65 108.988Z" fill="#999999"/>
<path d="M243.542 100.789V113.75H241.841V100.789H238.589V99.2015H246.785V100.789H243.542Z" fill="#999999"/>
<path d="M256.956 99.2014H258.666V109.494C258.521 110.634 258.064 111.613 257.296 112.436C256.408 113.393 255.308 113.871 253.997 113.871C252.673 113.871 251.56 113.388 250.659 112.421C249.757 111.453 249.307 110.306 249.307 108.978V99.2014H251.019V108.978C251.019 109.908 251.314 110.692 251.907 111.329C252.499 111.966 253.196 112.285 253.997 112.285C254.791 112.285 255.482 111.966 256.071 111.329C256.661 110.692 256.956 109.908 256.956 108.978V99.2014Z" fill="#999999"/>
<path d="M263.61 99.2014L271.362 110.829V99.2014H273.073V113.75H271.181L263.628 102.417V113.75H261.917V99.2014H263.61Z" fill="#999999"/>
<path d="M287.885 111.768C286.492 113.197 284.872 113.912 283.026 113.912C281.047 113.912 279.375 113.183 278.01 111.723C276.646 110.264 275.965 108.513 275.965 106.471C275.965 104.449 276.646 102.703 278.01 101.234C279.375 99.7646 281.047 99.0297 283.026 99.0297C284.866 99.0297 286.551 99.7781 288.083 101.274L286.893 102.407C285.645 101.227 284.355 100.637 283.026 100.637C281.576 100.637 280.324 101.202 279.268 102.331C278.213 103.46 277.685 104.84 277.685 106.471C277.685 108.116 278.213 109.501 279.268 110.626C280.324 111.752 281.576 112.314 283.026 112.314C284.267 112.314 285.32 111.944 286.183 111.202V106.774H287.885V111.768Z" fill="#999999"/>
<path d="M305.089 99.2015H306.875L301.988 113.75H300.796L295.918 99.2015H297.696L301.402 110.404L305.089 99.2015Z" fill="#999999"/>
<path d="M316.488 99.2015V100.789H310.798V105.683H316.488V107.269H310.798V112.163H316.488V113.75H309.086V99.2015H316.488Z" fill="#999999"/>
<path d="M321.479 100.799V107.391H323.161C323.956 107.391 324.649 107.076 325.241 106.445C325.834 105.816 326.131 105.028 326.131 104.085C326.131 103.148 325.834 102.366 325.241 101.739C324.649 101.112 323.956 100.799 323.161 100.799H321.479ZM323.076 108.988H321.479V113.75H319.768V99.2012H323.662C324.797 99.3633 325.745 99.8559 326.509 100.678C327.397 101.628 327.841 102.764 327.841 104.085C327.841 105.412 327.384 106.565 326.47 107.543C325.865 108.196 325.33 108.583 324.862 108.705L327.916 113.75H325.941L323.076 108.988Z" fill="#999999"/>
<path d="M332.481 100.799V107.391H334.164C334.958 107.391 335.652 107.076 336.244 106.445C336.836 105.816 337.133 105.028 337.133 104.085C337.133 103.148 336.836 102.366 336.244 101.739C335.652 101.112 334.958 100.799 334.164 100.799H332.481ZM332.481 108.988V113.75H330.77V99.2012H334.665C335.8 99.3633 336.748 99.8559 337.511 100.678C338.399 101.628 338.844 102.764 338.844 104.085C338.844 105.412 338.394 106.561 337.492 107.532C336.59 108.503 335.482 108.988 334.164 108.988H332.481Z" fill="#999999"/>
<path d="M348.288 99.2014V100.789H343.399V105.683H348.288V107.269H343.399V113.75H341.688V99.2014H348.288Z" fill="#999999"/>
<path d="M350.999 113.75V99.2014H352.71V112.163H357.597V113.75H350.999Z" fill="#999999"/>
<path d="M376.058 110.545L377.25 111.678C375.717 113.167 374.032 113.912 372.191 113.912C370.212 113.912 368.541 113.183 367.176 111.723C365.812 110.264 365.13 108.513 365.13 106.471C365.13 104.449 365.812 102.703 367.176 101.234C368.541 99.7645 370.212 99.0297 372.191 99.0297C374.032 99.0297 375.717 99.778 377.25 101.274L376.058 102.407C374.811 101.227 373.521 100.637 372.191 100.637C370.742 100.637 369.49 101.202 368.433 102.331C367.378 103.46 366.85 104.84 366.85 106.471C366.85 108.116 367.378 109.501 368.433 110.626C369.49 111.752 370.742 112.314 372.191 112.314C373.521 112.314 374.811 111.725 376.058 110.545Z" fill="#999999"/>
<path d="M381.606 107.269V113.75H379.895V99.2012H381.606V105.682H387.193V99.2012H388.904V113.75H387.193V107.269H381.606Z" fill="#999999"/>
<path d="M396.211 100.789V113.75H394.509V100.789H391.258V99.2014H399.453V100.789H396.211Z" fill="#999999"/>
<path d="M409.378 99.2014V100.789H403.688V105.683H409.378V107.269H403.688V112.163H409.378V113.75H401.976V99.2014H409.378Z" fill="#999999"/>
<path d="M416.855 100.789V113.75H415.153V100.789H411.902V99.2014H420.098V100.789H416.855Z" fill="#999999"/>
</svg>
